 <svg version="1.0" xmlns="http://www.w3.org/2000/svg"  width="300.000000pt" height="299.000000pt" viewBox="0 0 300.000000 299.000000"  preserveAspectRatio="xMidYMid meet">  <g transform="translate(0.000000,299.000000) scale(0.100000,-0.100000)" fill="#000000" stroke="none"> <path d="M1105 2982 c-6 -5 -48 -21 -95 -36 -415 -133 -783 -483 -932 -886 -80 -216 -78 -203 -78 -532 l0 -297 36 -113 c58 -185 141 -351 241 -480 74 -97 211 -230 303 -296 47 -34 92 -67 101 -74 35 -29 201 -109 294 -142 195 -69 350 -97 539 -97 317 1 615 93 874 271 272 187 461 431 578 745 30 80 34 100 33 185 l-1 95 -9 -63 c-13 -90 -72 -262 -130 -377 -192 -385 -573 -680 -1012 -785 -339 -81 -737 -26 -1052 145 -635 344 -933 1066 -714 1729 67 201 193 411 337 559 246 254 583 418 922 450 19 2 -24 5 -95 5 -72 1 -135 -2 -140 -6z"/> <path d="M1725 2980 c39 -4 111 -18 160 -30 425 -107 788 -397 979 -785 58 -118 111 -273 125 -370 l9 -60 1 92 c1 79 -3 104 -30 180 -132 374 -400 678 -756 857 -95 47 -125 59 -253 101 -63 21 -93 25 -190 24 -110 -2 -112 -2 -45 -9z"/> <path d="M1435 2301 c-113 -52 -140 -181 -69 -322 43 -86 115 -124 188 -99 120 39 179 282 92 379 -28 32 -93 61 -136 61 -19 0 -53 -9 -75 -19z m173 -54 c41 -39 56 -102 42 -171 -6 -31 -16 -58 -21 -61 -5 -4 -9 -14 -9 -24 0 -18 -41 -61 -76 -79 -49 -25 -116 19 -155 102 -35 73 -37 132 -9 191 27 55 68 76 143 72 46 -3 62 -9 85 -30z"/> <path d="M1474 2243 c-12 -2 -34 -17 -49 -33 -24 -25 -27 -36 -26 -87 1 -102 44 -173 104 -173 56 0 87 34 114 125 5 17 8 36 7 43 -1 6 -2 23 -3 37 -3 55 -79 101 -147 88z m99 -54 c25 -31 22 -96 -9 -157 -40 -80 -74 -80 -113 2 -23 46 -27 115 -10 147 23 43 99 47 132 8z"/> <path d="M921 2009 c-57 -17 -124 -94 -158 -185 -53 -137 -68 -249 -68 -504 0 -181 3 -240 18 -301 32 -137 97 -209 189 -209 60 0 87 11 128 52 58 57 86 136 120 328 17 96 41 215 55 263 30 106 31 133 6 147 -30 16 -49 12 -65 -13 -22 -33 -64 -194 -87 -337 -34 -207 -62 -290 -111 -324 -105 -74 -167 109 -155 459 7 199 33 339 78 433 38 78 75 105 136 99 85 -9 232 -105 360 -234 l81 -83 -34 -57 c-49 -81 -76 -158 -81 -234 -7 -84 8 -128 56 -172 93 -84 254 -45 292 70 25 77 -11 228 -82 343 l-27 44 41 50 c129 154 354 294 439 273 99 -25 163 -222 175 -537 13 -364 -59 -550 -172 -437 -41 41 -67 122 -90 278 -19 132 -69 334 -91 366 -16 25 -35 29 -65 13 -25 -14 -24 -39 6 -152 13 -51 38 -170 55 -264 31 -180 48 -233 98 -300 66 -90 195 -101 269 -22 97 104 125 506 57 837 -46 222 -148 333 -295 319 -103 -10 -287 -126 -421 -266 l-67 -69 -90 88 c-97 96 -240 196 -326 228 -59 22 -118 25 -174 10z m214 -65 c56 -28 169 -106 195 -134 54 -58 165 -150 181 -150 12 0 54 32 104 81 170 166 338 260 432 243 102 -18 158 -87 203 -253 10 -36 21 -91 26 -121 4 -30 9 -64 11 -75 2 -11 6 -85 9 -165 7 -167 -13 -340 -47 -421 -40 -93 -120 -129 -197 -90 -77 39 -112 115 -148 319 -21 125 -53 266 -80 361 -6 19 -4 22 11 19 14 -2 26 -27 46 -98 15 -52 30 -115 34 -138 4 -24 9 -54 11 -65 2 -12 9 -53 14 -92 24 -181 87 -286 172 -285 66 1 118 76 134 190 3 19 7 46 9 60 9 47 6 345 -5 420 -44 318 -142 444 -300 387 -146 -53 -400 -272 -400 -346 0 -9 18 -52 40 -96 63 -127 82 -235 51 -294 -23 -42 -76 -72 -129 -73 -102 0 -147 51 -146 167 1 72 12 106 75 226 16 31 29 65 29 74 0 49 -187 226 -319 305 -49 28 -122 50 -168 50 -91 0 -169 -125 -205 -328 -14 -82 -17 -123 -18 -322 -1 -148 12 -262 38 -331 13 -33 77 -89 102 -89 48 0 92 32 124 90 19 35 53 165 60 230 6 57 30 172 46 225 5 17 12 49 16 72 4 24 12 48 20 54 27 22 31 -2 13 -68 -11 -38 -26 -99 -34 -138 -9 -38 -17 -77 -19 -85 -2 -8 -7 -37 -10 -65 -4 -27 -10 -66 -13 -85 -8 -55 -42 -151 -66 -184 -34 -48 -52 -63 -92 -76 -102 -34 -185 60 -210 235 -10 71 -14 379 -6 425 5 25 12 68 15 95 10 79 35 188 46 199 5 5 10 16 10 24 0 20 58 100 86 118 79 52 142 52 249 -2z"/> <path d="M1475 1504 c-44 -44 -80 -161 -73 -236 5 -43 11 -57 38 -81 29 -25 39 -29 77 -24 86 9 123 79 97 182 -9 33 -20 64 -25 70 -5 5 -9 16 -9 25 0 20 -55 80 -74 80 -8 0 -22 -7 -31 -16z m76 -81 c18 -43 34 -101 37 -130 4 -45 1 -55 -21 -77 -35 -34 -79 -34 -114 0 -22 23 -25 32 -21 82 4 55 61 202 79 202 4 0 22 -35 40 -77z"/> </g> </svg> 